<mxfile>
    <diagram id="4h9eGXsoLVuvl0i-TR3p" name="Page-1">
        <mxGraphModel dx="708" dy="680" grid="1" gridSize="10" guides="1" tooltips="1" connect="1" arrows="1" fold="1" page="1" pageScale="1" pageWidth="827" pageHeight="1169" background="#114B5F" math="0" shadow="0">
            <root>
                <mxCell id="0"/>
                <mxCell id="1" parent="0"/>
                <mxCell id="10" style="edgeStyle=orthogonalEdgeStyle;rounded=0;orthogonalLoop=1;jettySize=auto;html=1;labelBackgroundColor=#114B5F;strokeColor=#028090;fontColor=#E4FDE1;" edge="1" parent="1" source="2" target="3">
                    <mxGeometry relative="1" as="geometry"/>
                </mxCell>
                <mxCell id="2" value="welcome to treasure island&lt;br&gt;your misson is to find the treasure" style="rounded=1;whiteSpace=wrap;html=1;fillColor=#F45B69;strokeColor=#028090;fontColor=#E4FDE1;" vertex="1" parent="1">
                    <mxGeometry x="200" y="50" width="200" height="60" as="geometry"/>
                </mxCell>
                <mxCell id="11" style="edgeStyle=orthogonalEdgeStyle;rounded=0;orthogonalLoop=1;jettySize=auto;html=1;entryX=0;entryY=0.5;entryDx=0;entryDy=0;labelBackgroundColor=#114B5F;strokeColor=#028090;fontColor=#E4FDE1;" edge="1" parent="1" source="3" target="4">
                    <mxGeometry relative="1" as="geometry"/>
                </mxCell>
                <mxCell id="15" style="edgeStyle=orthogonalEdgeStyle;rounded=0;orthogonalLoop=1;jettySize=auto;html=1;entryX=0.5;entryY=0;entryDx=0;entryDy=0;labelBackgroundColor=#114B5F;strokeColor=#028090;fontColor=#E4FDE1;" edge="1" parent="1" source="3" target="6">
                    <mxGeometry relative="1" as="geometry"/>
                </mxCell>
                <mxCell id="3" value="left or right" style="rhombus;whiteSpace=wrap;html=1;fillColor=#F45B69;strokeColor=#028090;fontColor=#E4FDE1;" vertex="1" parent="1">
                    <mxGeometry x="260" y="160" width="80" height="80" as="geometry"/>
                </mxCell>
                <mxCell id="4" value="fall into a hole&amp;nbsp;&lt;br&gt;Game over" style="rounded=1;whiteSpace=wrap;html=1;fillColor=#F45B69;strokeColor=#028090;fontColor=#E4FDE1;" vertex="1" parent="1">
                    <mxGeometry x="460" y="170" width="120" height="60" as="geometry"/>
                </mxCell>
                <mxCell id="5" value="attacked by trout&amp;nbsp;&lt;br&gt;Game Over" style="rounded=1;whiteSpace=wrap;html=1;fillColor=#F45B69;strokeColor=#028090;fontColor=#E4FDE1;" vertex="1" parent="1">
                    <mxGeometry x="460" y="320" width="120" height="60" as="geometry"/>
                </mxCell>
                <mxCell id="13" style="edgeStyle=orthogonalEdgeStyle;rounded=0;orthogonalLoop=1;jettySize=auto;html=1;entryX=0;entryY=0.5;entryDx=0;entryDy=0;labelBackgroundColor=#114B5F;strokeColor=#028090;fontColor=#E4FDE1;" edge="1" parent="1" source="6" target="5">
                    <mxGeometry relative="1" as="geometry"/>
                </mxCell>
                <mxCell id="14" style="edgeStyle=orthogonalEdgeStyle;rounded=0;orthogonalLoop=1;jettySize=auto;html=1;entryX=0.5;entryY=0;entryDx=0;entryDy=0;labelBackgroundColor=#114B5F;strokeColor=#028090;fontColor=#E4FDE1;" edge="1" parent="1" source="6" target="7">
                    <mxGeometry relative="1" as="geometry"/>
                </mxCell>
                <mxCell id="6" value="swin or wait" style="rhombus;whiteSpace=wrap;html=1;fillColor=#F45B69;strokeColor=#028090;fontColor=#E4FDE1;" vertex="1" parent="1">
                    <mxGeometry x="260" y="310" width="80" height="80" as="geometry"/>
                </mxCell>
                <mxCell id="16" style="edgeStyle=orthogonalEdgeStyle;rounded=0;orthogonalLoop=1;jettySize=auto;html=1;labelBackgroundColor=#114B5F;strokeColor=#028090;fontColor=#E4FDE1;" edge="1" parent="1" source="7" target="9">
                    <mxGeometry relative="1" as="geometry"/>
                </mxCell>
                <mxCell id="18" style="edgeStyle=orthogonalEdgeStyle;rounded=0;orthogonalLoop=1;jettySize=auto;html=1;entryX=0;entryY=0.5;entryDx=0;entryDy=0;labelBackgroundColor=#114B5F;strokeColor=#028090;fontColor=#E4FDE1;" edge="1" parent="1" source="7" target="17">
                    <mxGeometry relative="1" as="geometry">
                        <Array as="points">
                            <mxPoint x="330" y="540"/>
                            <mxPoint x="440" y="540"/>
                            <mxPoint x="440" y="600"/>
                        </Array>
                    </mxGeometry>
                </mxCell>
                <mxCell id="19" style="edgeStyle=orthogonalEdgeStyle;rounded=0;orthogonalLoop=1;jettySize=auto;html=1;labelBackgroundColor=#114B5F;strokeColor=#028090;fontColor=#E4FDE1;" edge="1" parent="1" source="7" target="8">
                    <mxGeometry relative="1" as="geometry"/>
                </mxCell>
                <mxCell id="21" style="edgeStyle=orthogonalEdgeStyle;rounded=0;orthogonalLoop=1;jettySize=auto;html=1;entryX=0;entryY=0.5;entryDx=0;entryDy=0;labelBackgroundColor=#114B5F;strokeColor=#028090;fontColor=#E4FDE1;" edge="1" parent="1" source="7" target="20">
                    <mxGeometry relative="1" as="geometry"/>
                </mxCell>
                <mxCell id="7" value="Which door?" style="rhombus;whiteSpace=wrap;html=1;fillColor=#F45B69;strokeColor=#028090;fontColor=#E4FDE1;" vertex="1" parent="1">
                    <mxGeometry x="260" y="440" width="80" height="80" as="geometry"/>
                </mxCell>
                <mxCell id="8" value="Burned by file&lt;br&gt;Game over" style="rounded=1;whiteSpace=wrap;html=1;fillColor=#F45B69;strokeColor=#028090;fontColor=#E4FDE1;" vertex="1" parent="1">
                    <mxGeometry x="60" y="450" width="120" height="60" as="geometry"/>
                </mxCell>
                <mxCell id="22" style="edgeStyle=orthogonalEdgeStyle;rounded=0;orthogonalLoop=1;jettySize=auto;html=1;labelBackgroundColor=#114B5F;strokeColor=#028090;fontColor=#E4FDE1;" edge="1" parent="1" source="9">
                    <mxGeometry relative="1" as="geometry">
                        <mxPoint x="380" y="600" as="targetPoint"/>
                    </mxGeometry>
                </mxCell>
                <mxCell id="9" value="You win !" style="rounded=1;whiteSpace=wrap;html=1;fillColor=#F45B69;strokeColor=#028090;fontColor=#E4FDE1;" vertex="1" parent="1">
                    <mxGeometry x="240" y="570" width="120" height="60" as="geometry"/>
                </mxCell>
                <mxCell id="17" value="Game Over" style="rounded=1;whiteSpace=wrap;html=1;fillColor=#F45B69;strokeColor=#028090;fontColor=#E4FDE1;" vertex="1" parent="1">
                    <mxGeometry x="460" y="570" width="120" height="60" as="geometry"/>
                </mxCell>
                <mxCell id="20" value="Eaten by beasts&lt;br&gt;Game over" style="rounded=1;whiteSpace=wrap;html=1;fillColor=#F45B69;strokeColor=#028090;fontColor=#E4FDE1;" vertex="1" parent="1">
                    <mxGeometry x="460" y="450" width="120" height="60" as="geometry"/>
                </mxCell>
                <mxCell id="23" value="Right or anything else" style="text;html=1;strokeColor=none;fillColor=none;align=center;verticalAlign=middle;whiteSpace=wrap;rounded=0;fontColor=#E4FDE1;" vertex="1" parent="1">
                    <mxGeometry x="340" y="170" width="100" height="20" as="geometry"/>
                </mxCell>
                <mxCell id="24" value="left" style="text;html=1;strokeColor=none;fillColor=none;align=center;verticalAlign=middle;whiteSpace=wrap;rounded=0;fontColor=#E4FDE1;" vertex="1" parent="1">
                    <mxGeometry x="300" y="260" width="40" height="20" as="geometry"/>
                </mxCell>
                <mxCell id="25" value="swin or anything else" style="text;html=1;strokeColor=none;fillColor=none;align=center;verticalAlign=middle;whiteSpace=wrap;rounded=0;fontColor=#E4FDE1;" vertex="1" parent="1">
                    <mxGeometry x="330" y="320" width="100" height="20" as="geometry"/>
                </mxCell>
                <mxCell id="26" value="wait" style="text;html=1;strokeColor=none;fillColor=none;align=center;verticalAlign=middle;whiteSpace=wrap;rounded=0;fontColor=#E4FDE1;" vertex="1" parent="1">
                    <mxGeometry x="300" y="400" width="40" height="20" as="geometry"/>
                </mxCell>
                <mxCell id="27" value="Anything&amp;nbsp; else" style="text;html=1;strokeColor=none;fillColor=none;align=center;verticalAlign=middle;whiteSpace=wrap;rounded=0;fontColor=#E4FDE1;" vertex="1" parent="1">
                    <mxGeometry x="340" y="520" width="80" height="20" as="geometry"/>
                </mxCell>
                <mxCell id="28" value="Blue" style="text;html=1;strokeColor=none;fillColor=none;align=center;verticalAlign=middle;whiteSpace=wrap;rounded=0;fontColor=#E4FDE1;" vertex="1" parent="1">
                    <mxGeometry x="384" y="460" width="40" height="20" as="geometry"/>
                </mxCell>
                <mxCell id="29" value="Red" style="text;html=1;strokeColor=none;fillColor=none;align=center;verticalAlign=middle;whiteSpace=wrap;rounded=0;fontColor=#E4FDE1;" vertex="1" parent="1">
                    <mxGeometry x="210" y="460" width="40" height="20" as="geometry"/>
                </mxCell>
                <mxCell id="30" value="yellow" style="text;html=1;strokeColor=none;fillColor=none;align=center;verticalAlign=middle;whiteSpace=wrap;rounded=0;fontColor=#E4FDE1;" vertex="1" parent="1">
                    <mxGeometry x="300" y="540" width="40" height="20" as="geometry"/>
                </mxCell>
            </root>
        </mxGraphModel>
    </diagram>
</mxfile>